<svg xmlns="http://www.w3.org/2000/svg" width="168" height="49.778" viewBox="0 0 168 49.778"><defs><style>.a{fill:#a6a6a6;}.b{fill:#fff;}</style></defs><path class="a" d="M162.023,49.778H5.885A5.9,5.9,0,0,1,0,43.888V5.881A5.89,5.89,0,0,1,5.885,0H162.023A5.97,5.97,0,0,1,168,5.881V43.888a5.979,5.979,0,0,1-5.977,5.89Z" transform="translate(0 0)"/><path d="M166.578,43.672a4.766,4.766,0,0,1-4.771,4.766H5.667A4.772,4.772,0,0,1,.89,43.672V5.662A4.778,4.778,0,0,1,5.667.89H161.805a4.771,4.771,0,0,1,4.771,4.772V43.672Z" transform="translate(0.218 0.218)"/><g transform="translate(15.919 7.737)"><path class="b" d="M34.366,21.6A7.214,7.214,0,0,1,37.8,15.543,7.389,7.389,0,0,0,31.983,12.4c-2.448-.258-4.822,1.465-6.069,1.465-1.272,0-3.192-1.44-5.262-1.4a7.747,7.747,0,0,0-6.521,3.977c-2.82,4.882-.717,12.056,1.985,16,1.351,1.933,2.931,4.09,5,4.015,2.022-.083,2.778-1.289,5.218-1.289,2.418,0,3.127,1.289,5.235,1.241,2.17-.035,3.537-1.941,4.841-3.891a15.969,15.969,0,0,0,2.214-4.509A6.973,6.973,0,0,1,34.366,21.6Z" transform="translate(-12.792 -4.713)"/><path class="b" d="M27.862,11.306a7.1,7.1,0,0,0,1.625-5.089,7.233,7.233,0,0,0-4.677,2.419,6.757,6.757,0,0,0-1.668,4.9A5.974,5.974,0,0,0,27.862,11.306Z" transform="translate(-10.271 -6.217)"/></g><g transform="translate(52.777 22.401)"><path class="b" d="M56.391,34.757H53.565l-1.548-4.865H46.636l-1.475,4.865H42.41L47.741,18.2h3.293ZM51.55,27.852l-1.4-4.324q-.222-.663-.835-3.12h-.05q-.245,1.057-.786,3.12L47.1,27.852Z" transform="translate(-42.41 -17.953)"/><path class="b" d="M66.921,27.78a6.786,6.786,0,0,1-1.646,4.815,4.814,4.814,0,0,1-3.661,1.573,3.661,3.661,0,0,1-3.391-1.695h-.05v6.291H55.519V25.887q0-1.915-.1-3.931h2.333l.148,1.893h.05a4.721,4.721,0,0,1,7.555-.468A6.579,6.579,0,0,1,66.921,27.78Zm-2.7.1A4.916,4.916,0,0,0,63.431,25a2.716,2.716,0,0,0-2.31-1.18,2.759,2.759,0,0,0-1.781.651A3.019,3.019,0,0,0,58.3,26.182a3.473,3.473,0,0,0-.123.809v1.991a3.191,3.191,0,0,0,.8,2.2,2.648,2.648,0,0,0,2.076.9,2.716,2.716,0,0,0,2.333-1.155A5.083,5.083,0,0,0,64.218,27.877Z" transform="translate(-39.23 -17.094)"/><path class="b" d="M77.958,27.78a6.781,6.781,0,0,1-1.648,4.815,4.809,4.809,0,0,1-3.66,1.573,3.658,3.658,0,0,1-3.39-1.695h-.05v6.291H66.557V25.887q0-1.915-.1-3.931h2.333l.148,1.893h.05a4.722,4.722,0,0,1,7.556-.468A6.6,6.6,0,0,1,77.958,27.78Zm-2.7.1A4.917,4.917,0,0,0,74.467,25a2.713,2.713,0,0,0-2.308-1.18,2.762,2.762,0,0,0-1.782.651,3.017,3.017,0,0,0-1.043,1.709,3.542,3.542,0,0,0-.123.809v1.991a3.2,3.2,0,0,0,.8,2.2,2.654,2.654,0,0,0,2.078.9,2.716,2.716,0,0,0,2.333-1.155A5.083,5.083,0,0,0,75.255,27.877Z" transform="translate(-36.531 -17.094)"/><path class="b" d="M90.057,30.16a4.414,4.414,0,0,1-1.471,3.44,6.519,6.519,0,0,1-4.511,1.45,7.9,7.9,0,0,1-4.292-1.032l.615-2.211a7.273,7.273,0,0,0,3.835,1.058,3.626,3.626,0,0,0,2.336-.677,2.211,2.211,0,0,0,.834-1.809,2.307,2.307,0,0,0-.688-1.7A6.4,6.4,0,0,0,84.43,27.4q-4.349-1.622-4.348-4.749a4.2,4.2,0,0,1,1.524-3.346A6.01,6.01,0,0,1,85.661,18a8.038,8.038,0,0,1,3.758.786l-.663,2.163a6.521,6.521,0,0,0-3.17-.762,3.208,3.208,0,0,0-2.185.688,1.966,1.966,0,0,0-.663,1.5A2.024,2.024,0,0,0,83.5,24a8.593,8.593,0,0,0,2.409,1.278,8.174,8.174,0,0,1,3.145,2.014A4.207,4.207,0,0,1,90.057,30.16Z" transform="translate(-33.274 -18.001)"/><path class="b" d="M96.517,24.484H93.592v5.8q0,2.212,1.548,2.211a4.719,4.719,0,0,0,1.178-.123l.073,2.015a6.011,6.011,0,0,1-2.063.294,3.184,3.184,0,0,1-2.458-.958,4.707,4.707,0,0,1-.885-3.219V24.481H89.244V22.49h1.742V20.3l2.606-.786V22.49h2.924v1.994Z" transform="translate(-30.962 -17.63)"/><path class="b" d="M107.989,27.828a6.551,6.551,0,0,1-1.573,4.521,5.616,5.616,0,0,1-4.375,1.818,5.34,5.34,0,0,1-4.188-1.743,6.35,6.35,0,0,1-1.561-4.4A6.486,6.486,0,0,1,97.9,23.482a5.569,5.569,0,0,1,4.336-1.77,5.454,5.454,0,0,1,4.226,1.745A6.278,6.278,0,0,1,107.989,27.828Zm-2.753.086a5.371,5.371,0,0,0-.712-2.834,2.621,2.621,0,0,0-2.382-1.429,2.66,2.66,0,0,0-2.433,1.429A5.474,5.474,0,0,0,99,27.964a5.364,5.364,0,0,0,.712,2.832,2.712,2.712,0,0,0,4.791-.025A5.391,5.391,0,0,0,105.236,27.914Z" transform="translate(-29.239 -17.094)"/><path class="b" d="M113.876,24.289a4.607,4.607,0,0,0-.836-.073,2.507,2.507,0,0,0-2.163,1.058,3.976,3.976,0,0,0-.663,2.358V33.9h-2.652l.025-8.181q0-2.065-.1-3.759H109.8l.1,2.285h.073a4.084,4.084,0,0,1,1.327-1.892,3.208,3.208,0,0,1,1.918-.64,4.26,4.26,0,0,1,.663.049v2.53Z" transform="translate(-26.502 -17.094)"/><path class="b" d="M124.241,27.366a6.224,6.224,0,0,1-.1,1.2h-7.959a3.465,3.465,0,0,0,1.155,2.7,3.943,3.943,0,0,0,2.6.835,8.8,8.8,0,0,0,3.221-.565l.416,1.842a9.957,9.957,0,0,1-4,.738,5.8,5.8,0,0,1-4.363-1.634,6.035,6.035,0,0,1-1.584-4.385,6.841,6.841,0,0,1,1.476-4.5,5.085,5.085,0,0,1,4.175-1.915,4.45,4.45,0,0,1,3.909,1.915A6.459,6.459,0,0,1,124.241,27.366Zm-2.53-.688a3.6,3.6,0,0,0-.515-2.04,2.318,2.318,0,0,0-2.114-1.106,2.517,2.517,0,0,0-2.112,1.081,3.959,3.959,0,0,0-.785,2.063h5.527Z" transform="translate(-25.001 -17.099)"/></g><g transform="translate(54.352 8.159)"><path class="b" d="M50.364,10.782a4.085,4.085,0,0,1-1.317,3.308,5.237,5.237,0,0,1-3.463,1.025,16.057,16.057,0,0,1-1.908-.1v-8a14.078,14.078,0,0,1,2.246-.169,4.842,4.842,0,0,1,3.223.93A3.757,3.757,0,0,1,50.364,10.782Zm-1.375.036a2.974,2.974,0,0,0-.754-2.185,2.973,2.973,0,0,0-2.2-.76,5.519,5.519,0,0,0-1.05.085v6.084a6.886,6.886,0,0,0,.881.036,3.085,3.085,0,0,0,2.311-.833A3.334,3.334,0,0,0,48.989,10.818Z" transform="translate(-43.676 -6.485)"/><path class="b" d="M56.038,11.627a3.218,3.218,0,0,1-.773,2.221,2.758,2.758,0,0,1-2.149.894,2.622,2.622,0,0,1-2.058-.857,3.123,3.123,0,0,1-.765-2.16,3.186,3.186,0,0,1,.79-2.233,2.741,2.741,0,0,1,2.13-.869,2.683,2.683,0,0,1,2.077.856A3.1,3.1,0,0,1,56.038,11.627Zm-1.353.042a2.653,2.653,0,0,0-.35-1.393,1.288,1.288,0,0,0-1.17-.7,1.308,1.308,0,0,0-1.2.7,2.689,2.689,0,0,0-.35,1.416,2.653,2.653,0,0,0,.35,1.393,1.316,1.316,0,0,0,1.183.7,1.3,1.3,0,0,0,1.17-.714A2.637,2.637,0,0,0,54.685,11.669Z" transform="translate(-42.059 -6.051)"/><path class="b" d="M64.435,8.719,62.6,14.585H61.4l-.76-2.547a19.065,19.065,0,0,1-.472-1.9h-.024a13.875,13.875,0,0,1-.472,1.9l-.808,2.547H57.661L55.935,8.719h1.34l.663,2.789q.241.989.4,1.883h.024q.146-.735.484-1.87l.833-2.8H60.74l.8,2.74q.289,1,.47,1.931h.036a18.453,18.453,0,0,1,.4-1.931l.712-2.74h1.281Z" transform="translate(-40.679 -6.027)"/><path class="b" d="M69.208,14.61H67.9V11.25Q67.9,9.7,66.722,9.7a1.177,1.177,0,0,0-.942.427,1.515,1.515,0,0,0-.362,1.006v3.479h-1.3V10.419q0-.773-.047-1.679h1.146l.061.917h.036a1.884,1.884,0,0,1,.676-.708,2.2,2.2,0,0,1,1.182-.33,1.872,1.872,0,0,1,1.365.531,2.582,2.582,0,0,1,.676,1.944Z" transform="translate(-38.692 -6.051)"/><path class="b" d="M71.344,15.114h-1.3V6.556h1.3Z" transform="translate(-37.231 -6.556)"/><path class="b" d="M78.387,11.627a3.218,3.218,0,0,1-.773,2.221,2.76,2.76,0,0,1-2.149.894,2.618,2.618,0,0,1-2.058-.857,3.123,3.123,0,0,1-.765-2.16,3.186,3.186,0,0,1,.79-2.233,2.74,2.74,0,0,1,2.129-.869,2.686,2.686,0,0,1,2.078.856A3.1,3.1,0,0,1,78.387,11.627Zm-1.354.042a2.653,2.653,0,0,0-.35-1.393,1.286,1.286,0,0,0-1.169-.7,1.306,1.306,0,0,0-1.2.7,2.689,2.689,0,0,0-.35,1.416,2.653,2.653,0,0,0,.35,1.393,1.316,1.316,0,0,0,1.183.7,1.3,1.3,0,0,0,1.169-.714A2.625,2.625,0,0,0,77.033,11.669Z" transform="translate(-36.596 -6.051)"/><path class="b" d="M83.276,14.609H82.1l-.1-.676h-.036a2.008,2.008,0,0,1-1.714.809,1.768,1.768,0,0,1-1.339-.531,1.666,1.666,0,0,1-.459-1.195,1.823,1.823,0,0,1,.9-1.641,4.67,4.67,0,0,1,2.53-.555v-.11q0-1.159-1.218-1.159a2.728,2.728,0,0,0-1.529.434l-.265-.856a3.762,3.762,0,0,1,2.012-.506q2.3,0,2.3,2.427v2.16A9.163,9.163,0,0,0,83.276,14.609Zm-1.354-2.016v-.9q-2.158-.037-2.158,1.182a.884.884,0,0,0,.25.688.912.912,0,0,0,.637.229,1.317,1.317,0,0,0,.8-.271,1.113,1.113,0,0,0,.473-.923Z" transform="translate(-35.173 -6.051)"/><path class="b" d="M89.385,15.114H88.228l-.061-.942h-.036a1.95,1.95,0,0,1-1.884,1.075,2.208,2.208,0,0,1-1.762-.833,3.243,3.243,0,0,1-.7-2.16,3.4,3.4,0,0,1,.76-2.306,2.338,2.338,0,0,1,1.811-.821,1.758,1.758,0,0,1,1.653.8h.025V6.556h1.305v6.978Q89.339,14.39,89.385,15.114ZM88.034,12.64v-.978A1.92,1.92,0,0,0,88,11.251a1.485,1.485,0,0,0-.472-.79,1.282,1.282,0,0,0-.872-.32,1.338,1.338,0,0,0-1.147.58,2.485,2.485,0,0,0-.418,1.485,2.317,2.317,0,0,0,.4,1.412,1.342,1.342,0,0,0,1.14.579,1.257,1.257,0,0,0,1.03-.483A1.608,1.608,0,0,0,88.034,12.64Z" transform="translate(-33.872 -6.556)"/><path class="b" d="M98.377,11.627a3.218,3.218,0,0,1-.773,2.221,2.756,2.756,0,0,1-2.149.894,2.625,2.625,0,0,1-2.058-.857,3.123,3.123,0,0,1-.765-2.16,3.186,3.186,0,0,1,.79-2.233,2.742,2.742,0,0,1,2.132-.869,2.68,2.68,0,0,1,2.076.856A3.1,3.1,0,0,1,98.377,11.627Zm-1.351.042a2.653,2.653,0,0,0-.35-1.393,1.29,1.29,0,0,0-1.171-.7,1.311,1.311,0,0,0-1.2.7,2.689,2.689,0,0,0-.35,1.416,2.653,2.653,0,0,0,.35,1.393,1.333,1.333,0,0,0,2.354-.012A2.648,2.648,0,0,0,97.025,11.669Z" transform="translate(-31.709 -6.051)"/><path class="b" d="M103.893,14.61h-1.3V11.25q0-1.553-1.183-1.553a1.173,1.173,0,0,0-.941.427,1.508,1.508,0,0,0-.362,1.006v3.479H98.8V10.419q0-.773-.046-1.679H99.9l.061.917h.036a1.9,1.9,0,0,1,.676-.708,2.209,2.209,0,0,1,1.183-.33,1.871,1.871,0,0,1,1.364.531,2.577,2.577,0,0,1,.676,1.944Z" transform="translate(-30.213 -6.051)"/><path class="b" d="M110.638,9.983H109.2v2.85c0,.724.255,1.086.76,1.086a2.3,2.3,0,0,0,.581-.061l.034.989a2.93,2.93,0,0,1-1.013.146,1.559,1.559,0,0,1-1.206-.47,2.3,2.3,0,0,1-.436-1.582V9.983h-.857V9.006h.857V7.931l1.278-.386V9h1.436v.978Z" transform="translate(-28.181 -6.314)"/><path class="b" d="M116.485,15.114h-1.305V11.779q0-1.577-1.181-1.578a1.245,1.245,0,0,0-1.244.915,1.639,1.639,0,0,0-.061.469v3.528h-1.3V6.556h1.3v3.535h.025a1.971,1.971,0,0,1,1.762-.964,1.818,1.818,0,0,1,1.342.531,2.672,2.672,0,0,1,.663,1.967Z" transform="translate(-27.124 -6.556)"/><path class="b" d="M122.231,11.4a3.149,3.149,0,0,1-.049.591h-3.911a1.71,1.71,0,0,0,.566,1.328,1.943,1.943,0,0,0,1.281.411,4.321,4.321,0,0,0,1.582-.278l.2.906a4.912,4.912,0,0,1-1.969.362,2.843,2.843,0,0,1-2.142-.8,2.957,2.957,0,0,1-.778-2.154,3.357,3.357,0,0,1,.724-2.209,2.494,2.494,0,0,1,2.051-.941,2.182,2.182,0,0,1,1.918.941A3.132,3.132,0,0,1,122.231,11.4Zm-1.244-.337a1.756,1.756,0,0,0-.253-1,1.139,1.139,0,0,0-1.038-.544,1.238,1.238,0,0,0-1.038.531,1.974,1.974,0,0,0-.387,1.014h2.715Z" transform="translate(-25.748 -6.053)"/></g></svg>