<svg xmlns="http://www.w3.org/2000/svg" xmlns:xlink="http://www.w3.org/1999/xlink" width="168" height="49.676" viewBox="0 0 168 49.676"><defs><style>.a{fill:#a6a6a6;}.b,.i,.j{fill:#fff;}.c{fill:url(#a);}.d{fill:url(#b);}.e{fill:url(#c);}.f{fill:url(#d);}.g{opacity:0.2;}.g,.h,.i{isolation:isolate;}.h{opacity:0.12;}.i{opacity:0.25;}.j{stroke:#fff;stroke-miterlimit:10;stroke-width:0.2px;}</style><linearGradient id="a" x1="0.915" y1="6.614" x2="-0.383" y2="5.945" gradientUnits="objectBoundingBox"><stop offset="0" stop-color="#00a0ff"/><stop offset="0.007" stop-color="#00a1ff"/><stop offset="0.26" stop-color="#00beff"/><stop offset="0.512" stop-color="#00d2ff"/><stop offset="0.76" stop-color="#00dfff"/><stop offset="1" stop-color="#00e3ff"/></linearGradient><linearGradient id="b" x1="1.076" y1="17.098" x2="-1.305" y2="17.098" gradientUnits="objectBoundingBox"><stop offset="0" stop-color="#ffe000"/><stop offset="0.409" stop-color="#ffbd00"/><stop offset="0.775" stop-color="orange"/><stop offset="1" stop-color="#ff9c00"/></linearGradient><linearGradient id="c" x1="0.862" y1="10.863" x2="-0.501" y2="9.093" gradientUnits="objectBoundingBox"><stop offset="0" stop-color="#ff3a44"/><stop offset="1" stop-color="#c31162"/></linearGradient><linearGradient id="d" x1="-0.188" y1="13.583" x2="0.421" y2="12.793" gradientUnits="objectBoundingBox"><stop offset="0" stop-color="#32a071"/><stop offset="0.068" stop-color="#2da771"/><stop offset="0.476" stop-color="#15cf74"/><stop offset="0.801" stop-color="#06e775"/><stop offset="1" stop-color="#00f076"/></linearGradient></defs><g transform="translate(-313 -3358)"><g transform="translate(303 3348)"><rect width="168" height="49" rx="7" transform="translate(10 10)"/><g transform="translate(10 10)"><path class="a" d="M171.778,10.994A5.227,5.227,0,0,1,177,16.209V53.466a5.227,5.227,0,0,1-5.227,5.216H16.222A5.227,5.227,0,0,1,11,53.466V16.209a5.227,5.227,0,0,1,5.227-5.216H171.778m0-.994H16.222A6.234,6.234,0,0,0,10,16.209V53.466a6.234,6.234,0,0,0,6.222,6.209H171.778A6.234,6.234,0,0,0,178,53.466V16.209A6.234,6.234,0,0,0,171.778,10Z" transform="translate(-10 -10)"/></g><path class="b" d="M84.759,32.9a5.293,5.293,0,1,0,5.313,5.293A5.217,5.217,0,0,0,84.759,32.9Zm0,8.5a3.216,3.216,0,1,1,2.987-3.207A3.062,3.062,0,0,1,84.759,41.4Zm-11.59-8.5a5.293,5.293,0,1,0,5.313,5.293A5.217,5.217,0,0,0,73.169,32.9Zm0,8.5a3.216,3.216,0,1,1,2.987-3.207A3.062,3.062,0,0,1,73.169,41.4ZM59.382,34.526v2.245h5.372A4.686,4.686,0,0,1,63.532,39.6a5.5,5.5,0,0,1-4.15,1.644,5.974,5.974,0,0,1,0-11.948,5.724,5.724,0,0,1,4.049,1.6l1.584-1.584a7.834,7.834,0,0,0-5.634-2.266,8.221,8.221,0,1,0,0,16.44,7.511,7.511,0,0,0,5.733-2.306,7.419,7.419,0,0,0,1.945-5.253,7.254,7.254,0,0,0-.121-1.4Zm56.383,1.743a4.919,4.919,0,0,0-4.531-3.367,5.029,5.029,0,0,0-4.991,5.293,5.179,5.179,0,0,0,5.253,5.293,5.264,5.264,0,0,0,4.41-2.346l-1.8-1.2A3.023,3.023,0,0,1,111.5,41.4a2.694,2.694,0,0,1-2.567-1.6l7.077-2.928Zm-7.218,1.765a2.9,2.9,0,0,1,2.766-3.087,2.047,2.047,0,0,1,1.965,1.122Zm-5.753,5.132h2.325V27.608h-2.325Zm-3.81-9.082H98.9A3.668,3.668,0,0,0,96.118,32.9a5.3,5.3,0,0,0,0,10.585,3.606,3.606,0,0,0,2.786-1.2h.08v.763c0,2.025-1.081,3.107-2.826,3.107a2.929,2.929,0,0,1-2.667-1.885l-2.025.842a5.043,5.043,0,0,0,4.692,3.127c2.727,0,5.033-1.6,5.033-5.513v-9.5H98.984ZM96.319,41.4a3.219,3.219,0,0,1,0-6.415,2.982,2.982,0,0,1,2.826,3.228A2.957,2.957,0,0,1,96.319,41.4Zm30.341-13.792H121.1V43.166h2.321V37.273h3.243a4.839,4.839,0,1,0,0-9.663Zm.06,7.5h-3.3V29.775h3.3a2.667,2.667,0,1,1,0,5.332Zm14.351-2.234a4.362,4.362,0,0,0-4.144,2.381l2.062.861a2.2,2.2,0,0,1,2.122-1.141,2.236,2.236,0,0,1,2.442,2v.159a5.136,5.136,0,0,0-2.422-.6c-2.221,0-4.484,1.221-4.484,3.5a3.6,3.6,0,0,0,3.863,3.423,3.276,3.276,0,0,0,2.963-1.522h.08v1.2h2.241V37.176C145.793,34.414,143.732,32.873,141.07,32.873Zm-.28,8.526c-.762,0-1.822-.38-1.822-1.32,0-1.2,1.32-1.661,2.462-1.661a4.143,4.143,0,0,1,2.122.52A2.815,2.815,0,0,1,140.79,41.4Zm13.169-8.186L151.3,39.958h-.08l-2.763-6.745h-2.5L150.1,42.64l-2.362,5.244h2.422l6.385-14.671Zm-20.915,9.953h2.322V27.609h-2.322Z" transform="translate(10.032 4.092)"/><g transform="translate(22.411 18.835)"><path class="c" d="M20.548,17.556a2.5,2.5,0,0,0-.575,1.748V46.826a2.5,2.5,0,0,0,.575,1.748l.092.09L36.057,33.247v-.363L20.64,17.465Z" transform="translate(-19.973 -17.061)"/><path class="d" d="M38.038,36.37,32.9,31.228v-.363l5.141-5.141.116.067,6.089,3.46c1.738.988,1.738,2.6,0,3.593L38.155,36.3Z" transform="translate(-16.814 -15.042)"/><path class="e" d="M41.2,35.258,35.944,30,20.435,45.51a2.025,2.025,0,0,0,2.587.076L41.2,35.258" transform="translate(-19.86 -13.997)"/><path class="f" d="M41.2,27.888,23.022,17.559a2.025,2.025,0,0,0-2.587.076L35.944,33.145Z" transform="translate(-19.86 -17.14)"/><g transform="translate(0 21.145)"><path class="g" d="M41.085,34.132,23.022,44.395a2.072,2.072,0,0,1-2.494.014h0l-.093.092h0l.092.091h0a2.072,2.072,0,0,0,2.494-.014L41.2,34.248Z" transform="translate(-19.86 -34.132)"/><path class="h" d="M20.548,42.661a2.5,2.5,0,0,1-.575-1.748V41.1a2.492,2.492,0,0,0,.575,1.747l.093-.092Z" transform="translate(-19.973 -32.474)"/></g><path class="h" d="M43.234,31.616l-6.2,3.526.116.116,6.089-3.46a2.184,2.184,0,0,0,1.3-1.8h0A2.316,2.316,0,0,1,43.234,31.616Z" transform="translate(-15.804 -13.997)"/><path class="i" d="M23.135,17.741,47.4,31.529a2.316,2.316,0,0,1,1.3,1.615h0a2.181,2.181,0,0,0-1.3-1.8L23.135,17.559c-1.74-.988-3.162-.167-3.162,1.824v.183C19.973,17.574,21.4,16.753,23.135,17.741Z" transform="translate(-19.973 -17.14)"/></g><g transform="translate(61.371 18.524)"><path class="j" d="M51.28,24.467V17h2.284a3.713,3.713,0,0,1,2.754,1.038,3.655,3.655,0,0,1,1.032,2.7,3.657,3.657,0,0,1-1.032,2.7,3.713,3.713,0,0,1-2.754,1.038Zm.959-.917h1.324a2.8,2.8,0,0,0,2.05-.742,2.769,2.769,0,0,0,.755-2.074,2.6,2.6,0,0,0-2.8-2.816H52.239Z" transform="translate(-51.28 -16.833)"/><path class="j" d="M57.239,24.467V17H58.2v7.467Z" transform="translate(-49.823 -16.833)"/><path class="j" d="M61.588,24.666A2.782,2.782,0,0,1,60,24.135a2.458,2.458,0,0,1-1.018-1.492l.876-.353a2.007,2.007,0,0,0,.641,1.037,1.621,1.621,0,0,0,1.09.422,1.744,1.744,0,0,0,1.069-.327,1.05,1.05,0,0,0,.443-.892,1.141,1.141,0,0,0-.443-.964,4.581,4.581,0,0,0-1.4-.631,3.726,3.726,0,0,1-1.5-.809,1.686,1.686,0,0,1-.513-1.267,1.851,1.851,0,0,1,.637-1.4,2.328,2.328,0,0,1,1.658-.595,2.4,2.4,0,0,1,1.543.474,2.2,2.2,0,0,1,.773,1.038l-.876.365a1.288,1.288,0,0,0-.464-.657,1.632,1.632,0,0,0-1.9.006.937.937,0,0,0-.391.765.869.869,0,0,0,.36.7,3.466,3.466,0,0,0,1.058.516,8.837,8.837,0,0,1,.923.345,4.177,4.177,0,0,1,.75.443,1.76,1.76,0,0,1,.574.688,2.232,2.232,0,0,1,.193.953,2.045,2.045,0,0,1-.224.971,1.835,1.835,0,0,1-.595.678,3,3,0,0,1-1.674.51Z" transform="translate(-49.398 -16.866)"/><path class="j" d="M65.144,24.467h-.959V17H66.73a2.36,2.36,0,0,1,1.643.631,2.171,2.171,0,0,1,0,3.181,2.36,2.36,0,0,1-1.643.631H65.144Zm0-3.942h1.607a1.237,1.237,0,0,0,.969-.406,1.285,1.285,0,0,0,0-1.793,1.234,1.234,0,0,0-.969-.408H65.144Z" transform="translate(-48.125 -16.833)"/><path class="j" d="M75.276,23.535a3.877,3.877,0,0,1-5.474,0A4.035,4.035,0,0,1,69.8,18a3.865,3.865,0,0,1,5.469,0,4.022,4.022,0,0,1,0,5.533Zm-4.766-.626a2.872,2.872,0,0,0,4.057,0,3.181,3.181,0,0,0,0-4.286,2.872,2.872,0,0,0-4.057,0,3.185,3.185,0,0,0,0,4.286Z" transform="translate(-47.021 -16.866)"/><path class="j" d="M75.951,24.467V17H77.12l3.629,5.808h.041l-.041-1.439V17h.959v7.467h-1l-3.8-6.09h-.041l.041,1.44v4.65Z" transform="translate(-45.249 -16.833)"/><path class="j" d="M81.951,24.467V17h.959v7.467Z" transform="translate(-43.783 -16.833)"/><path class="j" d="M84.1,24.467V17h2.7a2.189,2.189,0,0,1,1.517.579,1.876,1.876,0,0,1,.642,1.455,1.621,1.621,0,0,1-.278.938,1.732,1.732,0,0,1-.734.616v.041a1.906,1.906,0,0,1,.907.646,1.705,1.705,0,0,1,.355,1.065,1.958,1.958,0,0,1-.673,1.522,2.3,2.3,0,0,1-1.59.6Zm.958-4.266H86.8a1.117,1.117,0,0,0,.871-.36,1.115,1.115,0,0,0,.01-1.568,1.073,1.073,0,0,0-.839-.356H85.054Zm0,3.349h1.93a1.147,1.147,0,0,0,.9-.387,1.241,1.241,0,0,0,.343-.845,1.257,1.257,0,0,0-1.283-1.22H85.054Z" transform="translate(-43.258 -16.833)"/><path class="j" d="M89.241,24.467V17H90.2v6.55h3.232v.917Z" transform="translate(-42.001 -16.833)"/><path class="j" d="M97.941,17.917h-3.4v2.368h3.065v.9H94.541V23.55h3.4v.917H93.582V17h4.359Z" transform="translate(-40.94 -16.833)"/><path class="j" d="M104.662,17.917h-3.4v2.368h3.066v.9h-3.066V23.55h3.4v.917H100.3V17h4.359Z" transform="translate(-39.297 -16.833)"/><path class="j" d="M105.012,24.467V17h1.167l3.629,5.808h.041l-.041-1.439V17h.961v7.467h-1l-3.8-6.09h-.041l.041,1.44v4.65Z" transform="translate(-38.146 -16.833)"/></g></g></g></svg>